<svg width="129" height="37" viewBox="0 0 129 37" fill="none" xmlns="http://www.w3.org/2000/svg">
<path d="M26.7009 1V15.0984H21.4064V1.20492H17.826V35.3852H21.4064V18.9098H26.7009V36H30.2813V1H26.7009ZM3.6947 30.3033V2.18853H0V33.9098H7.46558C10.3985 33.9098 13.5218 33.459 15.4644 32.5574V28.9508C13.4838 29.7705 10.6651 30.3033 7.88457 30.3033H3.6947Z" fill="#191A20"/>
<path d="M58.8072 18.1311H62.5781V1H58.8072V18.1311ZM42.9238 17.6803C48.942 17.6803 52.9795 14.2787 52.9795 9.52459C52.9795 4.77049 48.942 1.36885 42.9238 1.36885C36.9057 1.36885 32.8301 4.77049 32.8301 9.52459C32.8301 14.2787 36.9057 17.6803 42.9238 17.6803ZM42.9238 14.4016C39.191 14.4016 36.5628 12.4754 36.5628 9.52459C36.5628 6.57377 39.191 4.64754 42.9238 4.64754C46.6566 4.64754 49.2467 6.57377 49.2467 9.52459C49.2467 12.4754 46.6566 14.4016 42.9238 14.4016ZM35.4202 35.5492H63.378V32.3525H39.1529V29.3197H62.5781V20.0574H35.344V23.2541H58.8453V26.2869H35.4202V35.5492Z" fill="#191A20"/>
<path d="M92.1324 36H95.9033V1H92.1324V36ZM76.5918 23.7869C82.4196 23.7869 86.6475 19.2787 86.6475 12.7623C86.6475 6.2459 82.4196 1.73771 76.5918 1.73771C70.726 1.73771 66.5362 6.2459 66.5362 12.7623C66.5362 19.2787 70.726 23.7869 76.5918 23.7869ZM76.5918 20.0984C72.7067 20.0984 70.2309 16.9426 70.2309 12.7623C70.2309 8.58197 72.7067 5.38525 76.5918 5.38525C80.4389 5.38525 82.9528 8.58197 82.9528 12.7623C82.9528 16.9426 80.4389 20.0984 76.5918 20.0984ZM65.4316 33.9098H78.4963C83.1814 33.9098 87.2189 33.2951 89.39 32.2295V28.459C87.1808 29.5656 83.1814 30.0984 78.7249 30.0984H65.4316V33.9098Z" fill="#191A20"/>
<path d="M125.229 1V19.1967H129V1H125.229ZM110.336 12.3115L120.201 18.5L121.991 15.4672L111.783 9.19672C112.202 8.0082 112.469 6.69672 112.545 5.34426H120.925V1.90164H99.8614V5.34426H108.736C108.241 10.5902 104.813 14.4426 99.4424 15.2213V18.8279C104.242 18.3361 108.051 15.918 110.336 12.3115ZM125.305 24.6066H105.118V20.7131H101.423V35.5492H129V20.7131H125.305V24.6066ZM105.118 32.2295V27.8852H125.305V32.2295H105.118Z" fill="#191A20"/>
</svg>
